# Blender v2.78 (sub 0) OBJ File: 'untitled.blend'
# www.blender.org
mtllib 0.mtl
o bd0_Circle.002
v 0.000000 0.034833 -0.021369
v -0.010684 0.034833 -0.018506
v -0.018506 0.034833 -0.010684
v -0.021369 0.034833 0.000000
v -0.018506 0.034833 0.010684
v -0.010684 0.034833 0.018506
v -0.000000 0.034833 0.021369
v 0.010684 0.034833 0.018506
v 0.018506 0.034833 0.010684
v 0.021369 0.034833 0.000000
v 0.018506 0.034833 -0.010684
v 0.010684 0.034833 -0.018506
v 0.000000 1.439705 -0.021369
v -0.010684 1.439705 -0.018506
v -0.018506 1.439705 -0.010684
v -0.021369 1.439705 0.000000
v -0.018506 1.439705 0.010684
v -0.010684 1.439705 0.018506
v -0.000000 1.439705 0.021369
v 0.010684 1.439705 0.018506
v 0.018506 1.439705 0.010684
v 0.021369 1.439705 0.000000
v 0.018506 1.439705 -0.010684
v 0.010684 1.439705 -0.018506
v 0.010684 1.454268 -0.015904
v 0.018506 1.451865 -0.008461
v 0.021369 1.448581 0.001706
v 0.018506 1.445298 0.011873
v 0.010684 1.442894 0.019316
v -0.000000 1.442014 0.022040
v -0.010684 1.442894 0.019316
v -0.018506 1.445298 0.011873
v -0.021369 1.448581 0.001706
v -0.018506 1.451865 -0.008461
v -0.010684 1.454268 -0.015904
v -0.000000 1.455148 -0.018629
v 0.010684 1.468165 -0.008051
v 0.018506 1.463414 -0.001838
v 0.021369 1.456923 0.006649
v 0.018506 1.450433 0.015136
v 0.010684 1.445681 0.021349
v -0.000000 1.443942 0.023623
v -0.010684 1.445681 0.021349
v -0.018506 1.450433 0.015136
v -0.021369 1.456923 0.006649
v -0.018506 1.463414 -0.001838
v -0.010684 1.468165 -0.008051
v -0.000000 1.469904 -0.010325
v 0.010684 1.479144 0.004580
v 0.018506 1.472507 0.008718
v 0.021369 1.463440 0.014370
v 0.018506 1.454373 0.020022
v 0.010684 1.447736 0.024159
v -0.000000 1.445306 0.025674
v -0.010684 1.447736 0.024159
v -0.018506 1.454373 0.020022
v -0.021369 1.463440 0.014370
v -0.018506 1.472507 0.008718
v -0.010684 1.479144 0.004580
v -0.000000 1.481574 0.003065
v 0.010684 1.563784 0.147921
v 0.018506 1.557147 0.152059
v 0.021369 1.548080 0.157711
v 0.018506 1.539013 0.163363
v 0.010684 1.532375 0.167500
v -0.000000 1.529946 0.169015
v -0.010684 1.532375 0.167500
v -0.018506 1.539013 0.163363
v -0.021369 1.548080 0.157711
v -0.018506 1.557147 0.152059
v -0.010684 1.563784 0.147921
v -0.000000 1.566213 0.146406
v 0.010684 1.565766 0.149688
v 0.018506 1.560412 0.155390
v 0.021369 1.553100 0.163180
v 0.018506 1.545787 0.170969
v 0.010684 1.540433 0.176672
v -0.000000 1.538474 0.178759
v -0.010684 1.540433 0.176672
v -0.018506 1.545787 0.170969
v -0.021369 1.553100 0.163180
v -0.018506 1.560412 0.155390
v -0.010684 1.565766 0.149688
v -0.000000 1.567725 0.147601
v 0.010684 1.568207 0.150456
v 0.018506 1.564289 0.157226
v 0.021369 1.558938 0.166473
v 0.018506 1.553587 0.175721
v 0.010684 1.549669 0.182491
v -0.000000 1.548235 0.184968
v -0.010684 1.549669 0.182491
v -0.018506 1.553587 0.175721
v -0.021369 1.558938 0.166473
v -0.018506 1.564289 0.157226
v -0.010684 1.568207 0.150456
v -0.000000 1.569640 0.147978
v 0.010684 1.570545 0.150872
v 0.018506 1.569987 0.158674
v 0.021369 1.569224 0.169331
v 0.018506 1.568462 0.179988
v 0.010684 1.567904 0.187789
v -0.000000 1.567700 0.190645
v -0.010684 1.567904 0.187789
v -0.018506 1.568462 0.179988
v -0.021369 1.569224 0.169331
v -0.018506 1.569987 0.158674
v -0.010684 1.570545 0.150872
v -0.000000 1.570749 0.148017
v 0.010684 1.889456 0.150872
v 0.018506 1.889456 0.158674
v 0.021369 1.889456 0.169331
v 0.018506 1.889456 0.179988
v 0.010684 1.889456 0.187789
v -0.000000 1.889456 0.190645
v -0.010684 1.889456 0.187789
v -0.018506 1.889456 0.179988
v -0.021369 1.889456 0.169331
v -0.018506 1.889456 0.158674
v -0.010684 1.889456 0.150872
v -0.000000 1.889456 0.148017
v -0.000000 1.897013 0.153833
v -0.007769 1.897013 0.155909
v -0.013456 1.897013 0.161582
v -0.015537 1.897013 0.169331
v -0.013456 1.897013 0.177080
v -0.007769 1.897013 0.182752
v -0.000000 1.897013 0.184828
v 0.007769 1.897013 0.182752
v 0.013456 1.897013 0.177080
v 0.015537 1.897013 0.169331
v 0.013456 1.897013 0.161582
v 0.007769 1.897013 0.155909
v 0.031822 0.023314 -0.014986
v 0.031822 0.015821 -0.012978
v 0.031822 0.010336 -0.007493
v 0.031822 0.008328 0.000000
v 0.031822 0.010336 0.007493
v 0.031822 0.015821 0.012978
v 0.031822 0.023314 0.014986
v 0.031822 0.030807 0.012978
v 0.031822 0.036292 0.007493
v 0.031822 0.038300 0.000000
v 0.031822 0.036292 -0.007493
v 0.031822 0.030807 -0.012978
v -0.031822 0.023314 -0.014986
v -0.031822 0.015821 -0.012978
v -0.031822 0.010336 -0.007493
v -0.031822 0.008328 0.000000
v -0.031822 0.010336 0.007493
v -0.031822 0.015821 0.012978
v -0.031822 0.023314 0.014986
v -0.031822 0.030807 0.012978
v -0.031822 0.036292 0.007493
v -0.031822 0.038300 0.000000
v -0.031822 0.036292 -0.007493
v -0.031822 0.030807 -0.012978
v 0.026392 1.463687 0.014365
v 0.022856 1.452489 0.021346
v -0.013196 1.444291 0.026456
v -0.022857 1.452489 0.021346
v -0.013196 1.483084 0.002274
v -0.000000 1.486084 0.000403
v 0.013196 1.483084 0.002274
v 0.022856 1.474886 0.007384
v 0.013196 1.444291 0.026456
v -0.000000 1.441290 0.028327
v -0.026392 1.463687 0.014365
v -0.022857 1.474886 0.007384
v 0.026392 1.547792 0.157626
v 0.022856 1.536593 0.164607
v -0.013196 1.528395 0.169717
v -0.022857 1.536593 0.164607
v -0.013196 1.567188 0.145535
v -0.000000 1.570189 0.143664
v 0.013196 1.567188 0.145535
v 0.022856 1.558990 0.150645
v 0.013196 1.528395 0.169717
v -0.000000 1.525395 0.171588
v -0.026392 1.547792 0.157626
v -0.022857 1.558990 0.150645
v 0.000000 0.019863 -0.013380
v -0.006690 0.019863 -0.011588
v -0.011588 0.019863 -0.006690
v -0.013380 0.019863 0.000000
v -0.011588 0.019863 0.006690
v -0.006690 0.019863 0.011588
v -0.000000 0.019863 0.013380
v 0.006690 0.019863 0.011588
v 0.011588 0.019863 0.006690
v 0.013380 0.019863 0.000000
v 0.011588 0.019863 -0.006690
v 0.006690 0.019863 -0.011588
vt 0.0901 0.0126
vt 0.0886 0.9728
vt 0.0809 0.9730
vt 0.0825 0.0138
vt 0.0683 0.0149
vt 0.0654 0.9716
vt 0.0584 0.9705
vt 0.0614 0.0151
vt 0.0340 0.0149
vt 0.0317 0.9704
vt 0.0247 0.9715
vt 0.0271 0.0146
vt 0.0129 0.0134
vt 0.0092 0.9729
vt 0.0015 0.9726
vt 0.0053 0.0122
vt 0.0753 0.0145
vt 0.0730 0.9726
vt 0.0409 0.0151
vt 0.0385 0.9697
vt 0.0546 0.0152
vt 0.0517 0.9697
vt 0.0451 0.9694
vt 0.0477 0.0152
vt 0.0201 0.0142
vt 0.0171 0.9725
vt 0.0321 0.9779
vt 0.0249 0.9776
vt 0.0170 0.9769
vt 0.0088 0.9754
vt 0.0012 0.9741
vt 0.0731 0.9770
vt 0.0652 0.9777
vt 0.0387 0.9780
vt 0.0513 0.9780
vt 0.0450 0.9780
vt 0.0813 0.9756
vt 0.0579 0.9780
vt 0.0889 0.9743
vt 0.0450 0.9877
vt 0.0381 0.9873
vt 0.0666 0.9844
vt 0.0590 0.9863
vt 0.0079 0.9779
vt 0.0007 0.9756
vt 0.0822 0.9781
vt 0.0745 0.9816
vt 0.0310 0.9863
vt 0.0519 0.9874
vt 0.0894 0.9758
vt 0.0234 0.9843
vt 0.0155 0.9814
vt 0.0538 0.9990
vt 0.0450 1.0000
vt 0.0771 0.9857
vt 0.0701 0.9913
vt 0.0129 0.9855
vt 0.0066 0.9801
vt 0.0362 0.9989
vt 0.0622 0.9960
vt 0.0199 0.9912
vt 0.0000 0.9770
vt 0.0277 0.9959
vt 0.0834 0.9803
vt 0.0901 0.9773
vt 0.8561 0.5944
vt 0.8571 0.6473
vt 0.8359 0.6473
vt 0.8351 0.5956
vt 0.1572 0.9071
vt 0.1599 0.8548
vt 0.1806 0.8570
vt 0.1778 0.9098
vt 0.8549 0.7539
vt 0.8529 0.8067
vt 0.8324 0.8048
vt 0.8340 0.7522
vt 0.1525 0.9560
vt 0.1738 0.9640
vt 0.8565 0.7009
vt 0.8352 0.6997
vt 0.1688 0.4921
vt 0.1678 0.4404
vt 0.1881 0.4390
vt 0.1890 0.4906
vt 0.8509 0.8590
vt 0.8310 0.8575
vt 0.1669 0.3894
vt 0.1639 0.3418
vt 0.1849 0.3347
vt 0.1871 0.3874
vt 0.8495 0.9104
vt 0.8303 0.9102
vt 0.8514 0.9578
vt 0.8316 0.9640
vt 0.8503 0.4387
vt 0.8523 0.4902
vt 0.8321 0.4920
vt 0.8308 0.4402
vt 0.1343 0.0274
vt 0.1405 0.0254
vt 0.1411 0.0269
vt 0.1343 0.0285
vt 0.1505 0.0147
vt 0.1556 0.0091
vt 0.1596 0.0145
vt 0.1536 0.0186
vt 0.1071 0.0041
vt 0.1129 0.0091
vt 0.1089 0.0145
vt 0.1028 0.0110
vt 0.1280 0.0254
vt 0.1274 0.0269
vt 0.1456 0.0205
vt 0.1475 0.0230
vt 0.1181 0.0147
vt 0.1149 0.0186
vt 0.1007 0.0000
vt 0.0962 0.0077
vt 0.1229 0.0205
vt 0.1210 0.0230
vt 0.1614 0.0041
vt 0.1657 0.0110
vt 0.1678 0.0000
vt 0.1723 0.0077
vt 0.1201 0.0259
vt 0.1132 0.0228
vt 0.1414 0.0286
vt 0.1343 0.0297
vt 0.1618 0.0199
vt 0.1553 0.0228
vt 0.1067 0.0199
vt 0.1001 0.0173
vt 0.1271 0.0286
vt 0.1484 0.0259
vt 0.0932 0.0150
vt 0.1684 0.0173
vt 0.1753 0.0150
vt 0.1194 0.0299
vt 0.1120 0.0297
vt 0.1416 0.0302
vt 0.1343 0.0304
vt 0.1637 0.0295
vt 0.1565 0.0297
vt 0.1048 0.0295
vt 0.0976 0.0291
vt 0.1269 0.0302
vt 0.1491 0.0299
vt 0.0904 0.0285
vt 0.1709 0.0291
vt 0.1781 0.0285
vt 0.1784 0.2430
vt 0.1711 0.2430
vt 0.1195 0.2430
vt 0.1121 0.2430
vt 0.1416 0.2430
vt 0.1343 0.2431
vt 0.1637 0.2430
vt 0.1564 0.2430
vt 0.1048 0.2430
vt 0.0974 0.2430
vt 0.1269 0.2430
vt 0.1490 0.2430
vt 0.0901 0.2430
vt 0.1827 0.0830
vt 0.1795 0.0764
vt 0.1855 0.0745
vt 0.1879 0.0793
vt 0.2249 0.0691
vt 0.2239 0.0764
vt 0.2178 0.0745
vt 0.2186 0.0692
vt 0.2236 0.0619
vt 0.2177 0.0640
vt 0.1784 0.0691
vt 0.1848 0.0692
vt 0.2017 0.0927
vt 0.1944 0.0916
vt 0.1964 0.0855
vt 0.2017 0.0864
vt 0.1879 0.0882
vt 0.1917 0.0831
vt 0.2206 0.0830
vt 0.2155 0.0882
vt 0.2117 0.0831
vt 0.2155 0.0793
vt 0.2089 0.0916
vt 0.2070 0.0855
vt 0.1797 0.0619
vt 0.1857 0.0640
vt 0.1785 0.1053
vt 0.1784 0.1000
vt 0.1811 0.0954
vt 0.1811 0.1100
vt 0.1984 0.1000
vt 0.1984 0.1053
vt 0.1957 0.1100
vt 0.1957 0.0954
vt 0.1911 0.1126
vt 0.1858 0.1126
vt 0.1857 0.0927
vt 0.1911 0.0927
vt 0.2208 0.0464
vt 0.2208 0.0516
vt 0.1784 0.0516
vt 0.1784 0.0464
vt 0.2208 0.0258
vt 0.2208 0.0309
vt 0.1784 0.0309
vt 0.1784 0.0258
vt 0.1784 0.0567
vt 0.2208 0.0567
vt 0.2208 0.0619
vt 0.1784 0.0619
vt 0.1784 0.0103
vt 0.1784 0.0052
vt 0.2208 0.0052
vt 0.2208 0.0103
vt 0.1784 0.0413
vt 0.1784 0.0361
vt 0.2208 0.0361
vt 0.2208 0.0413
vt 0.2208 0.0155
vt 0.2208 0.0206
vt 0.1784 0.0206
vt 0.1784 0.0155
vt 0.2208 0.0000
vt 0.1784 0.0000
vt 0.1878 0.6993
vt 0.1891 0.6469
vt 0.1833 0.8044
vt 0.8301 0.3884
vt 0.1897 0.5946
vt 0.1857 0.7518
vt 0.8315 0.3356
vt 0.8337 0.5438
vt 0.1896 0.5425
vt 0.1628 0.8022
vt 0.1681 0.6979
vt 0.1695 0.6465
vt 0.8543 0.5421
vt 0.1657 0.7499
vt 0.1701 0.5952
vt 0.1698 0.5437
vt 0.8490 0.3882
vt 0.8508 0.3416
vt 0.0672 0.0030
vt 0.0735 0.0026
vt 0.0342 0.0029
vt 0.0408 0.0031
vt 0.0475 0.0032
vt 0.0541 0.0032
vt 0.0157 0.0015
vt 0.0215 0.0023
vt 0.0795 0.0018
vt 0.0607 0.0031
vt 0.0278 0.0027
vt 0.0850 0.0004
vt 0.0105 0.0000
vn 0.0000 -0.2337 0.9723
vn 0.0000 -0.1343 0.9909
vn -0.5089 -0.1067 0.8542
vn -0.4861 -0.2337 0.8420
vn -0.9723 -0.2337 0.0000
vn -0.9998 0.0021 -0.0157
vn -0.8591 0.0468 -0.5096
vn -0.8420 -0.2337 -0.4861
vn 0.8420 -0.2337 -0.4861
vn 0.8591 0.0468 -0.5096
vn 0.9998 0.0021 -0.0157
vn 0.9723 -0.2337 0.0000
vn 0.4861 -0.2337 0.8420
vn 0.5089 -0.1067 0.8542
vn -0.8420 -0.2337 0.4861
vn -0.8733 -0.0517 0.4844
vn 0.4861 -0.2337 -0.8420
vn 0.4931 0.0764 -0.8666
vn -0.4861 -0.2337 -0.8420
vn -0.4931 0.0764 -0.8666
vn 0.0000 0.0867 -0.9962
vn 0.0000 -0.2337 -0.9723
vn 0.8420 -0.2337 0.4861
vn 0.8733 -0.0517 0.4844
vn 0.8540 0.1788 -0.4885
vn 0.9996 0.0094 -0.0268
vn 0.8787 -0.1831 0.4408
vn 0.5136 -0.3633 0.7773
vn 0.0000 -0.4476 0.8942
vn -0.8787 -0.1831 0.4408
vn -0.9996 0.0094 -0.0268
vn 0.4885 0.2955 -0.8209
vn -0.4885 0.2955 -0.8209
vn 0.0000 0.3372 -0.9414
vn -0.5136 -0.3634 0.7773
vn -0.8540 0.1788 -0.4885
vn 0.0000 0.6312 -0.7756
vn 0.4878 0.5521 -0.6761
vn -0.9996 0.0171 -0.0215
vn -0.8536 0.3316 -0.4016
vn 0.5082 -0.6073 0.6107
vn 0.0000 -0.7245 0.6892
vn -0.5082 -0.6073 0.6107
vn -0.8766 -0.3230 0.3566
vn 0.8536 0.3316 -0.4016
vn -0.4878 0.5521 -0.6761
vn 0.9996 0.0171 -0.0215
vn 0.8766 -0.3230 0.3566
vn -0.2914 0.0175 -0.9564
vn 0.0000 0.0721 -0.9974
vn -0.5843 -0.6708 -0.4566
vn -0.6470 -0.3909 -0.6546
vn 0.5843 -0.6708 -0.4566
vn 0.3366 -0.8863 -0.3180
vn 0.2914 0.0175 -0.9564
vn -0.5287 -0.1429 -0.8366
vn 0.6470 -0.3909 -0.6546
vn 0.0000 -0.9609 -0.2767
vn 0.5287 -0.1429 -0.8366
vn -0.3366 -0.8863 -0.3180
vn 0.0000 0.3192 -0.9477
vn 0.3841 0.2307 -0.8940
vn -0.2963 -0.0245 0.9548
vn -0.5346 0.1387 0.8336
vn -0.6683 0.0050 0.7439
vn -0.3866 -0.2376 0.8910
vn -0.7642 -0.3383 -0.5491
vn -0.6638 -0.0105 -0.7478
vn 0.0000 -0.0812 0.9967
vn 0.0000 -0.3267 0.9451
vn -0.3841 0.2307 -0.8940
vn 0.6566 0.3829 0.6498
vn 0.5346 0.1387 0.8336
vn 0.6683 0.0050 0.7439
vn 0.7695 0.3350 0.5437
vn -0.6597 -0.6641 -0.3517
vn 0.2963 -0.0245 0.9548
vn 0.3866 -0.2377 0.8910
vn -0.3800 -0.9013 -0.2080
vn 0.0000 -0.9878 -0.1556
vn 0.7642 -0.3383 -0.5491
vn 0.6597 -0.6641 -0.3517
vn 0.0000 0.9908 0.1355
vn -0.3915 0.8900 0.2337
vn -0.5114 0.4284 -0.7449
vn 0.0000 0.4517 -0.8922
vn -0.6566 0.3829 0.6498
vn -0.8556 -0.3318 0.3972
vn -0.9997 -0.0179 0.0187
vn 0.8556 -0.3318 0.3972
vn 0.4903 -0.5652 0.6634
vn 0.3915 0.8900 0.2337
vn 0.5114 0.4284 -0.7449
vn -0.6156 0.6572 0.4348
vn -0.8778 0.2730 -0.3936
vn 0.9997 -0.0179 0.0187
vn 0.0000 -0.6509 0.7591
vn 0.6156 0.6572 0.4348
vn 0.8778 0.2730 -0.3936
vn -0.4903 -0.5652 0.6634
vn 0.8683 0.1606 -0.4693
vn 0.9998 -0.0087 0.0177
vn -0.4923 0.2083 -0.8451
vn 0.0000 0.1890 -0.9820
vn -0.8546 -0.2078 0.4758
vn -0.9998 -0.0087 0.0177
vn 0.8546 -0.2078 0.4758
vn 0.4877 -0.3581 0.7961
vn 0.4923 0.2083 -0.8451
vn -0.8683 0.1606 -0.4693
vn 0.0000 -0.4133 0.9106
vn -0.4877 -0.3581 0.7961
vn 0.8735 0.0579 -0.4834
vn 0.9997 -0.0053 0.0219
vn -0.5022 0.0754 -0.8614
vn 0.0000 0.0650 -0.9979
vn -0.8552 -0.0736 0.5131
vn -0.9997 -0.0053 0.0219
vn 0.8552 -0.0736 0.5131
vn 0.4889 -0.1223 0.8637
vn 0.5022 0.0754 -0.8614
vn -0.8735 0.0579 -0.4834
vn 0.0000 -0.1396 0.9902
vn -0.4889 -0.1223 0.8637
vn 0.0000 0.3070 0.9517
vn -0.4751 0.3071 0.8246
vn 0.8237 0.3074 -0.4765
vn 0.9515 0.3075 0.0000
vn -0.4751 0.3071 -0.8246
vn 0.0000 0.3070 -0.9517
vn -0.8237 0.3074 0.4765
vn -0.9515 0.3075 0.0000
vn 0.8237 0.3074 0.4765
vn 0.4751 0.3071 0.8246
vn 0.4751 0.3071 -0.8245
vn -0.8237 0.3074 -0.4765
vn -0.4297 0.8680 0.2488
vn -0.4965 0.8680 0.0000
vn 0.4297 0.8680 0.2488
vn 0.2478 0.8679 0.4305
vn 0.0000 0.8678 0.4968
vn -0.2478 0.8679 0.4305
vn -0.2478 0.8679 -0.4305
vn 0.0000 0.8678 -0.4968
vn -0.4297 0.8680 -0.2488
vn 0.4297 0.8680 -0.2488
vn 0.4965 0.8680 0.0000
vn 0.2478 0.8679 -0.4305
vn 0.0000 0.0000 -1.0000
vn 0.0000 -0.5000 -0.8660
vn 0.0000 0.8660 0.5000
vn 0.0000 1.0000 0.0000
vn 0.0000 -0.8660 -0.5000
vn 0.0000 -1.0000 0.0000
vn 0.0000 -0.5000 0.8660
vn 0.0000 -0.8660 0.5000
vn 0.0000 0.5000 -0.8660
vn 0.0000 0.8660 -0.5000
vn 0.0000 0.0000 1.0000
vn 0.0000 0.5000 0.8660
vn -0.3828 0.9019 0.2000
vn 0.0000 0.9891 0.1472
vn -0.7695 0.3350 0.5437
vn 0.3800 -0.9013 -0.2080
vn 0.3828 0.9019 0.2000
vn -0.6644 0.6630 0.3449
vn 0.6638 -0.0105 -0.7478
vn 0.6644 0.6630 0.3449
vn -0.8822 -0.4707 0.0000
vn -0.7640 -0.4707 0.4411
vn 0.7640 -0.4707 -0.4411
vn 0.4411 -0.4707 -0.7640
vn 0.0000 -0.4707 -0.8822
vn -0.4411 -0.4707 -0.7640
vn 0.4411 -0.4707 0.7640
vn 0.7640 -0.4707 0.4411
vn -0.4411 -0.4707 0.7640
vn -0.7640 -0.4707 -0.4411
vn 0.8822 -0.4707 0.0000
vn 0.0000 -0.4707 0.8822
usemtl bd0
s 1
f 7/1/1 19/2/2 18/3/3 6/4/4
f 4/5/5 16/6/6 15/7/7 3/8/8
f 11/9/9 23/10/10 22/11/11 10/12/12
f 8/13/13 20/14/14 19/15/2 7/16/1
f 5/17/15 17/18/16 16/6/6 4/5/5
f 12/19/17 24/20/18 23/10/10 11/9/9
f 2/21/19 14/22/20 13/23/21 1/24/22
f 9/25/23 21/26/24 20/14/14 8/13/13
f 6/4/4 18/3/3 17/18/16 5/17/15
f 1/24/22 13/23/21 24/20/18 12/19/17
f 3/8/8 15/7/7 14/22/20 2/21/19
f 10/12/12 22/11/11 21/26/24 9/25/23
f 22/11/11 23/10/10 26/27/25 27/28/26
f 21/26/24 22/11/11 27/28/26 28/29/27
f 19/15/2 20/14/14 29/30/28 30/31/29
f 16/6/6 17/18/16 32/32/30 33/33/31
f 23/10/10 24/20/18 25/34/32 26/27/25
f 13/23/21 14/22/20 35/35/33 36/36/34
f 20/14/14 21/26/24 28/29/27 29/30/28
f 17/18/16 18/3/3 31/37/35 32/32/30
f 24/20/18 13/23/21 36/36/34 25/34/32
f 14/22/20 15/7/7 34/38/36 35/35/33
f 15/7/7 16/6/6 33/33/31 34/38/36
f 18/3/3 19/2/2 30/39/29 31/37/35
f 25/34/32 36/36/34 48/40/37 37/41/38
f 34/38/36 33/33/31 45/42/39 46/43/40
f 30/31/29 29/30/28 41/44/41 42/45/42
f 32/32/30 31/37/35 43/46/43 44/47/44
f 26/27/25 25/34/32 37/41/38 38/48/45
f 35/35/33 34/38/36 46/43/40 47/49/46
f 31/37/35 30/39/29 42/50/42 43/46/43
f 36/36/34 35/35/33 47/49/46 48/40/37
f 27/28/26 26/27/25 38/48/45 39/51/47
f 33/33/31 32/32/30 44/47/44 45/42/39
f 29/30/28 28/29/27 40/52/48 41/44/41
f 28/29/27 27/28/26 39/51/47 40/52/48
f 48/40/37 47/49/46 59/53/49 60/54/50
f 45/42/39 44/47/44 56/55/51 57/56/52
f 41/44/41 40/52/48 52/57/53 53/58/54
f 37/41/38 48/40/37 60/54/50 49/59/55
f 46/43/40 45/42/39 57/56/52 58/60/56
f 40/52/48 39/51/47 51/61/57 52/57/53
f 42/45/42 41/44/41 53/58/54 54/62/58
f 38/48/45 37/41/38 49/59/55 50/63/59
f 47/49/46 46/43/40 58/60/56 59/53/49
f 44/47/44 43/46/43 55/64/60 56/55/51
f 43/46/43 42/50/42 54/65/58 55/64/60
f 39/51/47 38/48/45 50/63/59 51/61/57
f 49/66/55 60/67/50 162/68/61 163/69/62
f 67/70/63 68/71/64 172/72/65 171/73/66
f 58/74/56 57/75/52 167/76/67 168/77/68
f 66/78/69 67/70/63 171/73/66 178/79/70
f 60/67/50 59/80/49 161/81/71 162/68/61
f 63/82/72 64/83/73 170/84/74 169/85/75
f 57/75/52 56/86/51 160/87/76 167/76/67
f 65/88/77 66/89/69 178/90/70 177/91/78
f 56/86/51 55/92/60 159/93/79 160/87/76
f 55/92/60 54/94/58 166/95/80 159/93/79
f 64/83/73 65/88/77 177/91/78 170/84/74
f 52/96/53 51/97/57 157/98/81 158/99/82
f 72/100/83 71/101/84 83/102/85 84/103/86
f 69/104/87 68/105/64 80/106/88 81/107/89
f 65/108/77 64/109/73 76/110/90 77/111/91
f 61/112/92 72/100/83 84/103/86 73/113/93
f 70/114/94 69/104/87 81/107/89 82/115/95
f 64/109/73 63/116/72 75/117/96 76/110/90
f 66/118/69 65/108/77 77/111/91 78/119/97
f 62/120/98 61/112/92 73/113/93 74/121/99
f 71/101/84 70/114/94 82/115/95 83/102/85
f 68/105/64 67/122/63 79/123/100 80/106/88
f 67/122/63 66/124/69 78/125/97 79/123/100
f 63/116/72 62/120/98 74/121/99 75/117/96
f 75/117/96 74/121/99 86/126/101 87/127/102
f 84/103/86 83/102/85 95/128/103 96/129/104
f 81/107/89 80/106/88 92/130/105 93/131/106
f 77/111/91 76/110/90 88/132/107 89/133/108
f 73/113/93 84/103/86 96/129/104 85/134/109
f 82/115/95 81/107/89 93/131/106 94/135/110
f 76/110/90 75/117/96 87/127/102 88/132/107
f 78/119/97 77/111/91 89/133/108 90/136/111
f 74/121/99 73/113/93 85/134/109 86/126/101
f 83/102/85 82/115/95 94/135/110 95/128/103
f 80/106/88 79/123/100 91/137/112 92/130/105
f 79/123/100 78/125/97 90/138/111 91/137/112
f 87/127/102 86/126/101 98/139/113 99/140/114
f 96/129/104 95/128/103 107/141/115 108/142/116
f 93/131/106 92/130/105 104/143/117 105/144/118
f 89/133/108 88/132/107 100/145/119 101/146/120
f 85/134/109 96/129/104 108/142/116 97/147/121
f 94/135/110 93/131/106 105/144/118 106/148/122
f 88/132/107 87/127/102 99/140/114 100/145/119
f 90/136/111 89/133/108 101/146/120 102/149/123
f 86/126/101 85/134/109 97/147/121 98/139/113
f 95/128/103 94/135/110 106/148/122 107/141/115
f 92/130/105 91/137/112 103/150/124 104/143/117
f 91/137/112 90/138/111 102/151/123 103/150/124
f 103/150/124 102/151/123 114/152/125 115/153/126
f 99/140/114 98/139/113 110/154/127 111/155/128
f 108/142/116 107/141/115 119/156/129 120/157/130
f 105/144/118 104/143/117 116/158/131 117/159/132
f 101/146/120 100/145/119 112/160/133 113/161/134
f 97/147/121 108/142/116 120/157/130 109/162/135
f 106/148/122 105/144/118 117/159/132 118/163/136
f 100/145/119 99/140/114 111/155/128 112/160/133
f 102/149/123 101/146/120 113/161/134 114/164/125
f 98/139/113 97/147/121 109/162/135 110/154/127
f 107/141/115 106/148/122 118/163/136 119/156/129
f 104/143/117 103/150/124 115/153/126 116/158/131
f 117/165/132 116/166/131 125/167/137 124/168/138
f 113/169/134 112/170/133 129/171/139 128/172/140
f 114/173/125 113/169/134 128/172/140 127/174/141
f 116/166/131 115/175/126 126/176/142 125/167/137
f 120/177/130 119/178/129 122/179/143 121/180/144
f 118/181/136 117/165/132 124/168/138 123/182/145
f 119/178/129 118/181/136 123/182/145 122/179/143
f 111/183/128 110/184/127 131/185/146 130/186/147
f 112/170/133 111/183/128 130/186/147 129/171/139
f 109/187/135 120/177/130 121/180/144 132/188/148
f 110/184/127 109/187/135 132/188/148 131/185/146
f 115/175/126 114/189/125 127/190/141 126/176/142
f 123/191/145 124/192/138 125/193/137 122/194/143
f 129/195/139 130/196/147 131/197/146 128/198/140
f 122/194/143 131/197/146 132/199/148 121/200/144
f 126/201/142 127/202/141 128/198/140 125/193/137
f 122/194/143 125/193/137 128/198/140 131/197/146
f 133/203/149 134/204/150 146/205/150 145/206/149
f 141/207/151 142/208/152 154/209/152 153/210/151
f 147/211/153 135/212/153 136/213/154 148/214/154
f 150/215/155 149/216/156 137/217/156 138/218/155
f 156/219/157 155/220/158 143/221/158 144/222/157
f 139/223/159 140/224/160 152/225/160 151/226/159
f 156/219/157 144/222/157 133/203/149 145/206/149
f 140/224/160 141/207/151 153/210/151 152/225/160
f 147/211/153 146/205/150 134/204/150 135/212/153
f 136/227/154 137/217/156 149/216/156 148/228/154
f 142/208/152 143/221/158 155/220/158 154/209/152
f 150/215/155 138/218/155 139/223/159 151/226/159
f 162/68/61 161/81/71 173/229/161 174/230/162
f 167/76/67 160/87/76 172/72/65 179/231/163
f 165/232/164 158/99/82 170/84/74 177/91/78
f 163/69/62 162/68/61 174/230/162 175/233/165
f 168/77/68 167/76/67 179/231/163 180/234/166
f 158/99/82 157/98/81 169/85/75 170/84/74
f 166/235/80 165/232/164 177/91/78 178/90/70
f 164/236/167 163/69/62 175/233/165 176/237/168
f 161/81/71 168/77/68 180/234/166 173/229/161
f 160/87/76 159/93/79 171/73/66 172/72/65
f 159/93/79 166/95/80 178/79/70 171/73/66
f 157/98/81 164/236/167 176/237/168 169/85/75
f 68/71/64 69/238/87 179/231/163 172/72/65
f 59/80/49 58/74/56 168/77/68 161/81/71
f 71/239/84 72/240/83 174/230/162 173/229/161
f 50/241/59 49/66/55 163/69/62 164/236/167
f 69/238/87 70/242/94 180/234/166 179/231/163
f 72/240/83 61/243/92 175/233/165 174/230/162
f 51/97/57 50/241/59 164/236/167 157/98/81
f 70/242/94 71/239/84 173/229/161 180/234/166
f 61/243/92 62/244/98 176/237/168 175/233/165
f 53/245/54 52/96/53 158/99/82 165/232/164
f 62/244/98 63/82/72 169/85/75 176/237/168
f 54/246/58 53/245/54 165/232/164 166/235/80
f 5/17/15 4/5/5 184/247/169 185/248/170
f 12/19/17 11/9/9 191/249/171 192/250/172
f 2/21/19 1/24/22 181/251/173 182/252/174
f 9/25/23 8/13/13 188/253/175 189/254/176
f 6/4/4 5/17/15 185/248/170 186/255/177
f 1/24/22 12/19/17 192/250/172 181/251/173
f 3/8/8 2/21/19 182/252/174 183/256/178
f 10/12/12 9/25/23 189/254/176 190/257/179
f 7/1/1 6/4/4 186/255/177 187/258/180
f 4/5/5 3/8/8 183/256/178 184/247/169
f 11/9/9 10/12/12 190/257/179 191/249/171
f 8/13/13 7/16/1 187/259/180 188/253/175
